<?xml version="1.0" encoding="UTF-8" standalone="no"?>
<!-- Created with Inkscape (http://www.inkscape.org/) -->

<svg
   xmlns:dc="http://purl.org/dc/elements/1.1/"
   xmlns:cc="http://creativecommons.org/ns#"
   xmlns:rdf="http://www.w3.org/1999/02/22-rdf-syntax-ns#"
   xmlns:svg="http://www.w3.org/2000/svg"
   xmlns="http://www.w3.org/2000/svg"
   xmlns:sodipodi="http://sodipodi.sourceforge.net/DTD/sodipodi-0.dtd"
   xmlns:inkscape="http://www.inkscape.org/namespaces/inkscape"
   width="210mm"
   height="297mm"
   viewBox="0 0 210 297"
   version="1.1"
   id="svg8"
   inkscape:version="0.92.3 (2405546, 2018-03-11)"
   sodipodi:docname="Logo.svg">
  <defs
     id="defs2" />
  <sodipodi:namedview
     id="base"
     pagecolor="#ffffff"
     bordercolor="#666666"
     borderopacity="1.0"
     inkscape:pageopacity="0.0"
     inkscape:pageshadow="2"
     inkscape:zoom="0.7"
     inkscape:cx="448.53922"
     inkscape:cy="709.70119"
     inkscape:document-units="mm"
     inkscape:current-layer="layer1"
     showgrid="false"
     inkscape:window-width="1600"
     inkscape:window-height="837"
     inkscape:window-x="-8"
     inkscape:window-y="-8"
     inkscape:window-maximized="1" />
  <metadata
     id="metadata5">
    <rdf:RDF>
      <cc:Work
         rdf:about="">
        <dc:format>image/svg+xml</dc:format>
        <dc:type
           rdf:resource="http://purl.org/dc/dcmitype/StillImage" />
        <dc:title />
      </cc:Work>
    </rdf:RDF>
  </metadata>
  <g
     inkscape:label="Capa 1"
     inkscape:groupmode="layer"
     id="layer1">
    <rect
       style="fill:#176fff;fill-opacity:0.85427091;stroke-width:0.38362285"
       id="rect3722"
       width="195.79167"
       height="157.61607"
       x="8.693449"
       y="42.622025" />
    <text
       xml:space="preserve"
       style="font-style:normal;font-weight:normal;font-size:36.3728981px;line-height:1.25;font-family:sans-serif;letter-spacing:0px;word-spacing:0px;fill:#000000;fill-opacity:1;stroke:none;stroke-width:0.90932238"
       x="57.857727"
       y="165.7711"
       id="text4549"
       transform="scale(1.4629488,0.6835509)"><tspan
         sodipodi:role="line"
         id="tspan4547"
         x="57.857727"
         y="165.7711"
         style="stroke-width:0.90932238">D</tspan><tspan
         sodipodi:role="line"
         x="57.857727"
         y="211.23723"
         style="stroke-width:0.90932238"
         id="tspan4551">O</tspan></text>
    <path
       id="path32"
       d="m 65.938643,163.10255 c -0.370769,1.25576 -0.727136,2.51616 -1.073301,3.77901 -0.173551,0.91531 -0.561134,1.7638 -0.883621,2.63203 -0.462053,1.02201 -0.961732,2.02653 -1.444297,3.03898 -0.56084,1.09634 -1.110448,2.19825 -1.657739,3.30171 -0.583777,1.07127 -1.196922,2.12772 -1.896353,3.12785 -0.718987,0.95486 -1.448065,1.90325 -2.207573,2.8265 -1.974611,2.29687 -4.560895,3.30278 -7.259663,4.86169 -1.483419,0.67949 -3.056015,1.11415 -4.665285,1.35828 -1.286848,0.01 -2.593474,-0.29854 -3.770857,-0.82056 -0.128418,-0.0569 -1.415852,-0.75228 -1.572128,-0.83634 -1.214615,-0.68415 -1.908725,-1.42439 -2.489435,-2.67335 -0.615691,-1.44376 -0.47675,-2.94613 -0.142923,-4.4356 0.299934,-1.24669 0.674669,-2.4736 1.478703,-3.49016 1.625693,-1.47779 3.586052,-3.18043 5.803046,-3.24188 0.375568,-0.0104 0.786423,0.0998 1.155986,0.15803 0.804084,0.22939 1.588825,0.50458 2.376881,0.78334 1.195546,0.51446 2.430013,0.94001 3.623551,1.45623 0.90501,0.35141 1.831155,0.67677 2.772661,0.91564 1.394614,0.38936 2.794963,0.74199 4.205478,1.06784 1.7335,0.36751 3.506912,0.44615 5.272281,0.50623 1.497346,0.0403 2.989622,0.0896 4.475837,-0.11195 1.120979,-0.0985 2.116487,-0.64715 3.126015,-1.09736 0.189651,-0.0867 0.383725,-0.1643 0.568952,-0.26009 0.200104,-0.10347 0.38908,-0.22724 0.585785,-0.33703 0.195387,-0.10906 0.784148,-0.43141 0.590391,-0.31948 -7.289956,4.21118 -4.544671,2.79266 -2.948665,1.40681 1.061487,-0.96909 1.919727,-2.12991 2.700129,-3.3298 0.738021,-0.99589 1.218927,-2.13033 1.731557,-3.24868 0.548347,-1.25469 0.962142,-2.5703 1.301822,-3.89583 0.272293,-1.13813 0.372951,-2.30479 0.419629,-3.47091 -0.02869,-0.60003 -0.116769,-1.20859 -0.4469,-1.7209 -0.460989,-0.53987 -1.117338,-0.87713 -1.765625,-1.14043 -1.011656,-0.29383 -2.079736,-0.35749 -3.123705,-0.48174 -1.765777,-0.1867 -3.542903,-0.21989 -5.316861,-0.24626 -1.483121,-0.0161 -2.966362,-0.009 -4.449532,-0.006 -1.347917,-0.005 -2.689447,0.17725 -4.012033,0.42398 -0.801351,0.13902 -1.620782,0.19303 -2.408378,0.40889 -0.315984,0.0866 -0.619307,0.21456 -0.932629,0.31035 -0.873438,0.2271 -1.674046,0.68881 -2.464983,1.11642 -1.709108,0.91208 -2.820368,1.51136 3.801898,-2.19301 0.158494,-0.0887 -0.303604,0.19958 -0.45095,0.30573 -0.418923,0.30182 -0.778849,0.63669 -1.136449,1.00687 -0.629478,0.67632 -1.219012,1.38792 -1.679766,2.19043 -0.07395,0.1228 -0.577074,1.12704 -0.472797,1.19322 0.0689,0.0437 0.163814,-0.0129 0.24479,-0.003 0.183642,0.0229 0.363905,0.0676 0.545859,0.10144 2.230935,0.34369 4.461587,0.0467 6.682534,-0.19886 2.419281,-0.20164 4.817258,-0.58509 7.213536,-0.96335 1.377987,-0.2808 0.713409,-0.14153 1.994046,-0.41633 0,0 -4.396187,3.33195 -4.396187,3.33195 v 0 c -1.263529,0.24704 -0.605785,0.12356 -1.973689,0.36802 -2.408274,0.36947 -4.818827,0.73868 -7.246696,0.95549 -2.278899,0.23628 -4.578808,0.45458 -6.85841,0.084 -1.50413,-0.46431 -1.497518,-0.89594 -0.837213,-2.14955 0.399838,-0.87206 0.98798,-1.62325 1.630362,-2.33179 1.932493,-2.23116 4.689549,-3.4274 7.29415,-4.7813 0.81226,-0.4201 1.638694,-0.82182 2.533636,-1.03356 1.099082,-0.32925 2.231025,-0.47824 3.362995,-0.65095 1.343176,-0.21787 2.703393,-0.36167 4.065764,-0.34452 1.475314,0.002 2.950671,0.008 4.425752,0.0364 1.791533,0.0401 3.585951,0.0883 5.369399,0.27366 1.095377,0.1208 2.22637,0.16306 3.255234,0.5953 0.732206,0.34734 1.470809,0.74974 1.967402,1.40994 0.376963,0.61976 0.531659,1.30882 0.578782,2.03034 -0.04834,1.20554 -0.157565,2.40923 -0.408424,3.59154 -0.324874,1.35223 -0.725295,2.69424 -1.24528,3.984 -0.520415,1.1337 -0.945034,2.31901 -1.706306,3.32333 -0.783183,1.23334 -1.611247,2.44337 -2.656779,3.4751 -0.1959,0.17918 -0.392086,0.35805 -0.587701,0.53754 -0.188592,0.17305 -0.346715,0.38629 -0.564914,0.5201 -2.291239,1.40509 -4.668557,2.86487 -7.138752,4.00219 -1.037672,0.46077 -2.084459,0.90959 -3.236098,0.96624 -1.489908,0.13275 -2.985577,0.0407 -4.478684,0.0108 -1.794052,-0.0762 -3.593864,-0.18716 -5.352542,-0.57439 -1.421804,-0.31525 -2.818257,-0.71971 -4.230436,-1.07443 -0.96257,-0.26291 -1.923682,-0.55156 -2.829541,-0.9757 -1.189514,-0.50352 -2.394273,-0.97837 -3.609988,-1.4145 -0.768157,-0.25278 -1.53144,-0.53871 -2.33021,-0.68061 -0.350382,-0.0364 -0.680939,-0.0809 -1.025543,0.023 -0.109784,0.0331 -0.417814,0.18653 -0.319474,0.12756 3.966065,-2.37829 6.0715,-3.40777 4.137276,-2.45285 -0.988779,0.80879 -1.339016,2.0628 -1.670404,3.25037 -0.373587,1.40687 -0.531082,2.691 0.02019,4.07992 0.481631,1.06048 1.227772,1.83411 2.262645,2.39158 1.594183,0.86011 3.27103,1.58411 5.131197,1.35657 1.583523,-0.30553 3.147642,-0.75841 4.573309,-1.5292 -10.550985,6.12639 -4.398946,2.73719 -3.40334,1.93139 0.426775,-0.34542 0.809775,-0.74648 1.211566,-1.11929 0.767818,-0.902 1.47402,-1.84981 2.211237,-2.77611 0.69855,-0.99514 1.363131,-2.00668 1.965185,-3.06646 0.542046,-1.09421 1.032102,-2.21298 1.634307,-3.27544 0.456613,-1.00975 0.955411,-2.00159 1.451319,-2.99223 0.315767,-0.86239 0.708896,-1.7014 0.918909,-2.5952 0.341521,-1.25378 0.741653,-2.4903 1.048938,-3.75389 0,0 5.058137,-2.42306 5.058137,-2.42306 z"
       inkscape:connector-curvature="0"
       style="stroke-width:0.26458332" />
    <path
       id="path38"
       d="m 89.174848,175.42643 c -1.71618,-0.0408 -3.433122,-0.0246 -5.149617,-0.0193 -1.135108,0.006 -2.270199,0.0137 -3.405312,0.0179 -0.555437,0.11007 -1.138536,0.24064 -1.631571,0.53219 -0.121174,0.0717 -0.471745,0.3068 -0.349232,0.23746 1.465993,-0.8297 2.92054,-1.67946 4.380812,-2.51919 -0.697889,0.4677 -1.361234,0.97883 -1.889895,1.63459 -0.523343,0.54604 -0.646993,1.23191 -0.727096,1.95506 -0.04033,0.65981 0.250306,0.88646 0.699505,1.26771 0.703721,0.34933 1.516746,0.35286 2.285828,0.39079 0.895041,0.0318 1.790827,0.0237 2.686233,0.0193 0.472996,2.7e-4 0.967589,0.0283 1.415632,-0.15997 0.08747,-0.0368 0.322614,-0.19969 0.239953,-0.15311 -1.525431,0.85947 -3.04574,1.728 -4.568611,2.592 0.566643,-0.25841 0.897306,-0.77509 1.345835,-1.17435 0.371266,-0.39811 0.711206,-0.82838 1.05101,-1.25459 0.457396,-0.46743 0.839481,-1.00052 1.249397,-1.50822 0.176876,-0.0468 0.3976,-0.87239 0.473519,-0.90886 5.18074,-2.48857 4.786649,-4.1648 5.160569,-2.02296 0.07325,0.75343 -0.128188,1.49736 -0.231672,2.23981 -0.113718,0.69898 -0.156335,1.32853 0.33039,1.88255 0.539316,0.47682 1.156854,0.6566 1.853967,0.76588 0.760138,0.0894 1.527088,0.0828 2.291197,0.0824 -0.193548,0.24428 1.258522,-0.49264 0.916347,-0.29777 -8.957786,5.10163 -5.380196,3.36314 -4.019346,2.16634 0.508251,-0.4836 0.827709,-1.08889 1.134433,-1.70931 0.323924,-0.63621 0.524959,-1.32448 0.764185,-1.9953 0.173315,-0.67889 0.351197,-1.35932 0.492953,-2.0461 0.398632,-2.45486 -1.148101,-0.74058 5.154919,-2.83524 0.0425,-0.0141 -0.0129,0.3956 -0.0668,0.84069 -0.13118,0.7909 -0.21245,1.58732 -0.25695,2.38737 -0.0184,0.74802 -0.0685,1.49957 -0.006,2.24624 0.0599,0.5404 0.33713,0.71808 0.76087,0.96951 0.27477,0.16303 0.53437,0.3504 0.80388,0.52198 1.07257,0.5406 2.25882,0.7217 3.44066,0.83399 0.8393,0.11427 1.58946,0.0268 2.30347,-0.43033 -8.865564,4.67211 -5.12372,3.36369 -3.84906,2.04148 0.32314,-0.3352 0.6046,-0.713 0.89543,-1.0757 0.49321,-0.60319 0.87509,-1.28535 1.22561,-1.97837 0.28324,-0.62007 0.32086,-1.30198 0.35067,-1.97226 0.003,-0.12218 0.008,-0.24434 0.009,-0.36655 0.003,-0.31421 -0.0132,-0.43588 -0.0106,-0.43234 0.0959,0.13385 0.0662,0.51361 0.21562,0.44441 4.50988,-2.08901 5.55211,-4.44317 4.62916,-2.47697 -0.29316,0.78286 -0.47791,1.60362 -0.68579,2.41285 -0.14636,0.65353 -0.31347,1.33202 -0.10275,1.98716 0.23555,0.59226 0.69241,0.80239 1.19005,1.1153 0.50479,0.31083 1.01132,0.60476 1.5591,0.84073 0.65467,0.2148 1.36088,0.34541 2.04458,0.23124 -0.26248,0.28235 1.43707,-0.69669 1.02149,-0.46171 -7.43765,4.20567 -5.55331,3.47714 -4.04616,2.18777 0.48701,-0.42241 0.79046,-0.97597 1.12407,-1.5167 0.32861,-0.66015 0.65244,-1.32232 0.98134,-1.98237 0.24758,-0.59833 0.34654,-1.24211 0.52126,-1.86429 0.14153,-0.60943 0.25558,-1.24604 0.20539,-1.87343 -0.0115,-0.0321 -0.004,-0.0814 -0.0346,-0.0964 -0.0798,-0.0388 -0.0956,0.30642 -0.0167,0.26565 1.61504,-0.83553 3.17032,-1.78186 4.761,-2.66288 0.0486,-0.0269 -0.0999,0.0557 -0.13363,0.0999 -0.0455,0.0596 -0.065,0.13516 -0.0975,0.20274 -0.16234,0.62777 -0.2145,1.29445 -0.16247,1.94052 0.0418,0.58181 0.26926,1.06716 0.56962,1.55162 0.37084,0.43291 0.91921,0.62994 1.45892,0.75801 0.87463,0.14417 1.76689,0.13345 2.65087,0.14244 0.95617,0.004 1.91234,-0.005 2.8685,-0.009 0.80571,0.077 1.44384,-0.11761 2.16874,-0.42261 -9.37275,4.89294 -4.56775,3.18915 -3.39029,1.58028 0.32639,-0.59819 0.34035,-1.29021 0.36507,-1.95496 0.0446,-0.61863 -0.10345,-1.21404 -0.33361,-1.78196 -0.25108,-0.45159 -0.79078,-0.55855 -1.26575,-0.46198 -1.67826,0.57285 -5.60007,3.06632 3.88105,-2.29135 0.14865,-0.084 -0.26985,0.2121 -0.38364,0.33939 -0.39591,0.47803 -0.70879,1.03988 -0.99555,1.59114 -0.31455,0.68809 -0.38332,1.44105 -0.42767,2.18622 -0.0115,0.60563 0.21741,1.14881 0.41948,1.70439 0.13777,0.52234 0.36058,1.01979 0.71423,1.43062 0.378,0.45802 0.82029,0.82958 1.31414,1.15673 1.28281,0.48306 2.67031,0.53965 4.02322,0.62732 2.08995,0.0539 4.19276,0.19945 6.28071,0.0409 0.25466,-0.061 0.51328,-0.10726 0.764,-0.18283 0.48757,-0.14697 0.90937,-0.337 1.35494,-0.57972 0.22517,-0.12266 0.88541,-0.51751 0.6613,-0.39292 -4.20873,2.33971 -5.32279,3.27415 -3.41198,1.76714 1.46888,-1.17422 2.59095,-2.63807 3.55307,-4.23606 0.87636,-1.60332 1.55056,-3.30305 2.17368,-5.0171 0.64406,-1.63159 1.27505,-3.26513 1.86112,-4.91876 0.5399,-1.61642 0.91315,-3.28181 1.16271,-4.96601 0.15603,-1.16914 0.19872,-2.34842 0.21118,-3.52648 -5.3e-4,-0.85233 0.0363,-1.70192 -0.0959,-2.54596 -0.15127,-0.6445 -0.48446,-1.1239 -1.01036,-1.51315 -0.64349,-0.32104 -1.3293,-0.54983 -2.03611,-0.68394 -0.83521,-0.0829 -1.7094,-0.23316 -2.52334,0.007 -1.08841,0.26583 -2.0354,0.8739 -3.03283,1.35271 -2.10309,1.25963 0.83357,-0.50376 3.78277,-2.15301 0.15802,-0.0884 -0.30008,0.20269 -0.44737,0.30797 -0.51632,0.36908 -0.9939,0.76683 -1.46574,1.19036 -0.76613,0.65753 -1.48215,1.37666 -2.07728,2.19387 -0.46901,0.61544 -0.80603,1.28005 -1.0686,2.00386 -0.36801,0.8177 -0.64183,1.66186 -0.79808,2.54404 -0.1239,0.83812 -0.12644,1.68712 -0.13068,2.53239 -0.001,0.8187 0.008,1.63737 0.005,2.45607 2.6e-4,0.90014 -0.0468,1.79771 0.092,2.68957 0.0373,0.62256 0.38781,1.10989 0.65756,1.64432 0.31686,0.54547 0.66061,1.07438 0.96505,1.62784 0.44244,0.79044 0.95246,1.54056 1.47854,2.27696 0.72707,0.99478 1.79332,1.63914 2.86587,2.2013 1.31627,0.70795 2.69577,1.25942 4.09549,1.77381 1.3077,0.4566 2.68848,0.58155 4.06171,0.65324 0.22473,-0.013 0.45069,-0.012 0.67419,-0.0389 0.33891,-0.0407 0.9622,-0.17863 1.27883,-0.30569 0.20614,-0.0827 0.78415,-0.41734 0.5917,-0.30643 -4.67148,2.69229 -5.47832,3.28882 -3.659,2.0037 1.03514,-0.75958 1.79558,-1.77386 2.47648,-2.84553 0.56198,-0.85198 1.14604,-1.69126 1.60017,-2.60701 0.33687,-0.75008 0.82701,-1.41478 1.20765,-2.14126 0.2283,-0.47854 0.11682,-0.24048 0.33462,-0.7141 0,0 5.0936,-2.33862 5.0936,-2.33862 v 0 c -0.20186,0.49631 -0.0927,0.25349 -0.32678,0.72871 -0.32045,0.76587 -0.81228,1.42763 -1.22435,2.14429 -0.40902,0.96218 -0.98058,1.83556 -1.58383,2.68691 -0.70862,1.08218 -1.36458,2.22033 -2.41769,3.0174 -2.35478,2.09755 -5.33942,3.99697 -8.56296,3.95546 -1.40935,-0.10319 -2.81791,-0.28966 -4.14932,-0.78953 -1.41657,-0.52699 -2.79403,-1.13391 -4.13076,-1.84177 -1.13668,-0.62025 -2.27359,-1.32913 -3.04326,-2.39653 -0.52794,-0.76028 -1.06448,-1.51729 -1.52391,-2.32179 -0.30895,-0.55992 -0.67569,-1.08225 -0.98817,-1.63997 -0.29033,-0.58491 -0.67765,-1.12544 -0.72451,-1.80249 -0.15322,-0.91942 -0.13122,-1.84046 -0.12731,-2.77091 -0.007,-0.81993 -0.005,-1.63991 -0.005,-2.45986 0.003,-0.86949 -0.007,-1.74228 0.0902,-2.60758 0.1284,-0.91338 0.35058,-1.80644 0.74681,-2.64434 0.28305,-0.73392 0.47245,-1.50749 1.0185,-2.10837 0.50452,-0.90983 1.28121,-1.66028 2.05631,-2.3417 2.20609,-2.11408 4.87578,-3.5816 7.62962,-4.93355 1.00438,-0.5201 2.02299,-1.04709 3.14964,-1.24238 0.88938,-0.0722 1.79125,-0.0127 2.66658,0.16457 0.76099,0.19556 1.52635,0.45002 2.18029,0.89533 0.59562,0.51097 1.01534,1.09927 1.21088,1.87082 0.15001,0.87679 0.15247,1.75283 0.12501,2.64138 -0.0178,1.20711 -0.0547,2.41501 -0.22174,3.6126 -0.23915,1.71828 -0.60937,3.41541 -1.13241,5.07065 -0.57414,1.65846 -1.1778,3.30282 -1.85882,4.92073 -0.60931,1.74905 -1.30212,3.46607 -2.14454,5.11781 -0.22943,0.40242 -0.71729,1.27692 -0.98219,1.66943 -0.68899,1.02088 -1.58641,1.89048 -2.47457,2.73435 -2.19356,1.91488 -0.58582,0.57855 -6.03014,3.782 -0.89822,0.52851 -1.89358,0.85126 -2.92999,0.95378 -2.09329,0.0607 -4.18898,-0.0547 -6.28097,-0.11992 -1.44163,-0.091 -2.99502,-0.12294 -4.30166,-0.80832 -0.51242,-0.38177 -0.99231,-0.78907 -1.39899,-1.28547 -0.36945,-0.47499 -0.66257,-1.00909 -0.80506,-1.59764 -0.22082,-0.62555 -0.48294,-1.2295 -0.50978,-1.90616 0.0307,-0.80028 0.0795,-1.60804 0.33624,-2.37358 0.23965,-0.62448 0.6289,-1.14126 0.90793,-1.7469 0.0606,-0.0657 0.12914,-0.12499 0.18187,-0.19722 0.0595,-0.0815 0.0669,-0.20861 0.15293,-0.26143 1.15577,-0.70942 3.73917,-3.02783 5.90465,-3.07046 0.6849,0.114 1.29258,0.3677 1.62215,1.02086 0.26011,0.63316 0.45993,1.30061 0.43143,1.99351 -0.0125,0.73523 -0.0205,1.48308 -0.24253,2.19129 -0.11031,0.26678 -0.13686,0.38105 -0.3139,0.61214 -0.24418,0.31872 -0.19821,0.18771 -0.49835,0.43834 -0.0864,0.0722 -0.16196,0.1564 -0.24294,0.2346 -1.7005,0.96425 -3.40099,1.92849 -5.10148,2.89274 -0.73895,0.24774 -1.50339,0.28309 -2.27872,0.25421 -0.95279,5.2e-4 -1.90561,0.001 -2.85837,-0.008 -0.92386,-0.0129 -1.86542,-0.006 -2.76356,-0.25023 -0.64707,-0.2229 -1.27619,-0.52977 -1.68826,-1.09859 -0.34167,-0.55193 -0.60971,-1.11421 -0.67966,-1.77069 -0.10624,-0.70786 -0.0289,-1.43023 0.0491,-2.13895 0.0184,-0.11084 0.0898,-0.55272 0.0991,-0.55859 1.42841,-0.89306 4.38919,-4.56891 5.48681,-2.27564 0.10742,0.68401 -0.004,1.38778 -0.11514,2.06635 -0.15733,0.65426 -0.35348,1.29053 -0.48613,1.95095 -0.28062,0.69793 -0.71492,1.31963 -0.96279,2.03488 -0.30107,0.56747 -0.60603,1.18302 -1.063,1.63343 -1.50498,1.95934 -4.20073,3.3283 -6.67585,3.7652 -0.75779,-0.0217 -1.5117,-0.13728 -2.2078,-0.45321 -0.55361,-0.26643 -1.07964,-0.57021 -1.60085,-0.89464 -0.60852,-0.36223 -1.08018,-0.79044 -1.38875,-1.44367 -0.27985,-0.75161 -0.20483,-1.51436 -0.0262,-2.28626 0.19456,-0.82898 0.43208,-1.64616 0.6344,-2.47296 0.65347,-2.004 4.18027,-5.06807 5.28451,-2.88976 0.10766,0.21238 -0.14574,0.61943 -0.02,0.83005 -0.0168,0.72677 -0.034,1.46419 -0.25355,2.16392 -0.29014,0.74949 -0.72665,1.4539 -1.18954,2.10696 -1.88711,2.59136 -2.66404,2.79402 -6.56852,4.74416 -0.80688,0.2942 -1.62785,0.28404 -2.47339,0.15777 -1.24015,-0.16936 -2.47665,-0.42322 -3.583463,-1.03666 -0.800619,-0.49324 -1.635562,-0.90263 -1.835507,-1.91211 -0.114388,-0.77081 -0.04205,-1.55332 -0.03547,-2.3305 0.03552,-0.81463 0.09829,-1.62815 0.237508,-2.43255 0.02024,-0.12975 0.0415,-0.25934 0.06075,-0.38924 0.01704,-0.11506 -0.05085,-0.28453 0.04814,-0.3456 1.637753,-1.01045 3.37515,-1.84998 5.049092,-2.79928 0.0233,-0.0132 -0.0642,-0.043 -0.0779,-0.0199 -0.10633,0.18012 0.004,0.44709 -0.0983,0.61973 -0.11885,0.71249 -0.33316,1.39791 -0.45512,2.10884 -0.208,0.70479 -0.48957,1.38661 -0.735119,2.07834 -0.328097,0.62848 -0.555353,1.33312 -1.073118,1.83829 -1.452272,2.066 -4.089583,3.45876 -6.606247,3.60378 -0.786381,-0.009 -1.578099,-0.0185 -2.352598,-0.17103 -0.786532,-0.18935 -1.497364,-0.49144 -2.068658,-1.08563 -0.541504,-0.69471 -0.69909,-1.41486 -0.543446,-2.28644 0.08279,-0.70179 0.262128,-1.39801 0.278879,-2.10035 -0.148485,-2.09264 -0.07998,-0.22492 4.975452,-2.89863 0.03939,-0.0208 -0.06869,0.0593 -0.09103,0.0979 -0.163039,0.28135 -0.18605,0.62534 -0.383352,0.89127 -0.379352,0.54059 -0.817951,1.03412 -1.211326,1.56656 -0.417166,0.35301 -0.733602,0.82845 -1.047229,1.27114 -0.57822,0.61866 0.186931,-0.1692 -0.432959,0.37339 -0.321259,0.28121 -0.438335,0.74662 -0.872704,0.91067 -3.33185,1.91361 -3.949774,3.13533 -6.856785,3.05159 -0.898523,-10e-4 -1.797736,-0.003 -2.694924,-0.0582 -0.874417,-0.0678 -1.785015,-0.13057 -2.516458,-0.66815 -0.545922,-0.46312 -0.927674,-1.00118 -0.942919,-1.74747 0.05664,-0.78223 0.09728,-1.60571 0.579138,-2.25948 0.328729,-0.38216 0.169511,-0.17624 0.473049,-0.62131 0.384455,-0.47586 0.936109,-0.75747 1.367057,-1.18384 2.021403,-1.17904 4.63858,-3.43534 7.341928,-3.56432 1.118656,0.004 2.237288,0.0124 3.355938,0.0179 1.734233,0.005 3.468862,0.0208 5.202801,-0.0193 0,0 -4.532908,3.29335 -4.532908,3.29335 z"
       inkscape:connector-curvature="0"
       style="stroke-width:0.26458332" />
  </g>
</svg>
